<?xml version="1.0" encoding="UTF-8" standalone="no"?>
<svg width="254px" height="257px" viewBox="0 0 254 257" version="1.1" xmlns="http://www.w3.org/2000/svg" xmlns:xlink="http://www.w3.org/1999/xlink" xmlns:sketch="http://www.bohemiancoding.com/sketch/ns">
    <!-- Generator: Sketch 3.4.2 (15855) - http://www.bohemiancoding.com/sketch -->
    <title>Group</title>
    <desc>Created with Sketch.</desc>
    <defs>
        <path id="path-1" d="M0,109.99676 C0,104.475702 4.48348981,100 9.99748821,100 L57.1448195,100 C62.6662798,100 67.1423077,104.477683 67.1423077,109.99676 L67.1423077,146.465361 C67.1423077,151.986419 62.6588179,156.462121 57.1448195,156.462121 L9.99748821,156.462121 C4.47602793,156.462121 0,151.984439 0,146.465361 L0,109.99676 Z"></path>
    </defs>
    <g id="Page-3" stroke="none" stroke-width="1" fill="none" fill-rule="evenodd" sketch:type="MSPage">
        <g id="Group" sketch:type="MSLayerGroup">
            <g id="Rectangle-12">
                <use fill="#000000" fill-rule="evenodd" sketch:type="MSShapeGroup" xlink:href="#path-1"></use>
                <use fill="none" xlink:href="#path-1"></use>
            </g>
            <path d="M93.4153846,110.265699 C93.4153846,104.744641 97.8988744,100.268939 103.412873,100.268939 L150.560204,100.268939 C156.081664,100.268939 160.557692,104.746622 160.557692,110.265699 L160.557692,146.734301 C160.557692,152.255359 156.074202,156.731061 150.560204,156.731061 L103.412873,156.731061 C97.8914125,156.731061 93.4153846,152.253378 93.4153846,146.734301 L93.4153846,110.265699 Z" id="Rectangle-12-Copy" fill="#000000" sketch:type="MSShapeGroup"></path>
            <rect id="Rectangle-12-Copy-2" fill="#000000" sketch:type="MSShapeGroup" x="186" y="101" width="67.1423077" height="56.4621212" rx="10"></rect>
            <rect id="Rectangle-12-Copy-3" fill="#000000" sketch:type="MSShapeGroup" x="93.4153846" y="200.537879" width="67.1423077" height="56.4621212" rx="10"></rect>
            <rect id="Rectangle-12-Copy-4" fill="#000000" sketch:type="MSShapeGroup" x="93.4153846" y="0" width="67.1423077" height="56.4621212" rx="10"></rect>
            <path d="M124.553846,53.5416667 L33,101.999999" id="Path-1" stroke="#000000" stroke-width="2" sketch:type="MSShapeGroup"></path>
            <path d="M127.959615,201.024621 L34.5442308,156.244318" id="Path-1-Copy" stroke="#000000" stroke-width="2" sketch:type="MSShapeGroup"></path>
            <path d="M128.446154,52.5681818 L128.446154,203.945076" id="Path-2" stroke="#000000" stroke-width="2" sketch:type="MSShapeGroup"></path>
            <path d="M128.446154,52.5681818 L217.239423,100.512311" id="Path-2-Copy" stroke="#000000" stroke-width="2" sketch:type="MSShapeGroup"></path>
            <path d="M128.932692,201.024621 L219.915385,157.704545" id="Path-2-Copy-2" stroke="#000000" stroke-width="2" sketch:type="MSShapeGroup"></path>
        </g>
    </g>
</svg>